<svg width="118" height="212" viewBox="0 0 118 212" fill="none" xmlns="http://www.w3.org/2000/svg">
<path d="M110.7 157.5H55.95C28.2 156.6 6.75 134.4 6.75 105.75C6.75 76.95 29.25 54.45 57.6 54.45C85.95 54.45 108.3 76.95 108.3 105.75C108.3 124.2 99.45 139.8 85.8 148.95C86.7 148.95 87.6 148.95 88.35 148.95H110.7V157.5ZM57.6 148.35C80.1 148.35 98.4 129.6 98.4 105.75C98.4 82.2 80.25 63.6 57.6 63.6C34.95 63.6 16.65 82.2 16.65 105.75C16.65 129.6 34.8 148.35 57.6 148.35Z" fill="white"/>
<path d="M57.56 140.496C38.112 140.496 22.88 125.4 22.88 106.088V42.712H31.312V85.688C36.888 77.256 46.68 71.544 57.832 71.544C77.416 71.544 92.104 86.64 92.104 106.088C92.104 124.992 77.28 140.496 57.56 140.496ZM57.56 132.472C72.112 132.472 83.672 120.504 83.672 106.088C83.672 91.672 72.112 79.568 57.56 79.568C42.872 79.568 31.312 91.672 31.312 106.088C31.312 120.504 42.872 132.472 57.56 132.472Z" fill="white"/>
</svg>
